<?xml version="1.0" encoding="UTF-8"?>
<svg version="1.1" xmlns="http://www.w3.org/2000/svg" width="1280" height="450">
<path d="M0 0 C0.94658981 0.35172272 1.89317963 0.70344543 2.86845398 1.06582642 C4.90898389 1.82530556 6.94779222 2.58942329 8.98501587 3.35772705 C13.35785879 5.00681136 17.73895712 6.63343471 22.11952209 8.26187134 C24.39286606 9.10733347 26.6657604 9.95400549 28.93821716 10.80184937 C39.25851146 14.65057548 49.60964943 18.41056026 59.9720459 22.14419556 C62.86502753 23.18672163 65.75733283 24.23110198 68.64941406 25.27612305 C75.47394646 27.74208119 82.29885383 30.20700049 89.12432861 32.67034912 C95.2578634 34.88410478 101.39025587 37.10097359 107.52108765 39.32220459 C109.43473129 40.01486613 111.34880311 40.70634606 113.26333618 41.39654541 C115.91104193 42.35117221 118.55723407 43.30988789 121.203125 44.26953125 C121.96975967 44.54484177 122.73639435 44.82015228 123.52626038 45.10380554 C141.61759289 51.68831077 141.61759289 51.68831077 145.0546875 58.5625 C145.15431573 60.31888015 145.18976984 62.07904622 145.19512939 63.83824158 C145.20083954 64.95785782 145.20654968 66.07747406 145.21243286 67.23101807 C145.21355072 68.4656781 145.21466858 69.70033813 145.21582031 70.97241211 C145.22078522 72.2686702 145.22575012 73.56492828 145.23086548 74.90046692 C145.24400993 78.46762564 145.25044093 82.03476551 145.25487614 85.60194468 C145.25780968 87.83769084 145.26191549 90.0734319 145.26638031 92.30917549 C145.28007401 99.32352453 145.2897258 106.33786185 145.2935822 113.35222334 C145.29803749 121.41002993 145.31545849 129.46766474 145.3445828 137.52541918 C145.36636591 143.77284196 145.3762956 150.02021709 145.37762332 156.26767737 C145.37866156 159.98789007 145.38435356 163.70794175 145.40244293 167.42811394 C145.49368125 187.33391879 145.14945425 206.50140546 138.4921875 225.5 C138.14776611 226.50160156 137.80334473 227.50320313 137.44848633 228.53515625 C128.27098031 254.35391344 112.62141363 277.85532496 92.8359375 296.81640625 C90.91420065 298.62509699 90.91420065 298.62509699 88.9921875 301.1875 C86.69492982 304.00349328 84.12147305 306.21407 81.359375 308.56640625 C78.88265349 310.71149895 76.50723271 312.94637858 74.1171875 315.1875 C66.82474032 321.82614157 58.97775878 327.7024705 51.0546875 333.5625 C50.38727539 334.06007813 49.71986328 334.55765625 49.03222656 335.0703125 C32.78016209 347.124397 15.26689985 357.36804473 -2.5078125 367 C-3.34538086 367.46672119 -4.18294922 367.93344238 -5.04589844 368.41430664 C-9.94650859 371.00250983 -14.34632183 372.86022063 -19.9453125 371.5625 C-23.95401339 370.01689908 -27.67561324 368.05304255 -31.4453125 366 C-32.53465088 365.41863281 -33.62398926 364.83726562 -34.74633789 364.23828125 C-62.06750712 349.44349529 -87.80085306 331.68959595 -110.68359375 310.6328125 C-113.83603102 307.7471618 -117.08222425 304.97120015 -120.328125 302.19140625 C-121.9453125 300.5625 -121.9453125 300.5625 -121.9453125 298.5625 C-122.9353125 298.2325 -123.9253125 297.9025 -124.9453125 297.5625 C-126.3828125 296.171875 -126.3828125 296.171875 -127.9453125 294.3125 C-128.56019531 293.58289063 -129.17507812 292.85328125 -129.80859375 292.1015625 C-130.51371094 291.26367188 -131.21882813 290.42578125 -131.9453125 289.5625 C-132.76386719 288.64210938 -133.58242187 287.72171875 -134.42578125 286.7734375 C-144.86688252 274.95180551 -153.9577415 261.71835505 -160.9453125 247.5625 C-161.51765625 246.41652344 -162.09 245.27054688 -162.6796875 244.08984375 C-169.36070483 230.43087499 -173.63009921 216.59574304 -175.9453125 201.5625 C-176.2057132 199.87207077 -176.2057132 199.87207077 -176.47137451 198.14749146 C-177.19225869 192.26494044 -177.10099944 186.36691659 -177.10644531 180.44873047 C-177.11141022 179.15022156 -177.11637512 177.85171265 -177.12149048 176.51385498 C-177.1345252 172.97271693 -177.14104063 169.43159776 -177.14550114 165.89043951 C-177.14844346 163.67519856 -177.15255017 161.45996266 -177.15700531 159.24472427 C-177.17065027 152.30463973 -177.18033428 145.36456685 -177.1842072 138.42446983 C-177.1886952 130.42828424 -177.2062899 122.43226897 -177.2352078 114.43613517 C-177.25683027 108.241448 -177.26691161 102.04680878 -177.26824832 95.85208428 C-177.26929499 92.1575266 -177.27517448 88.46312969 -177.29306793 84.76861191 C-177.31262499 80.65146268 -177.30825746 76.53467101 -177.30175781 72.41748047 C-177.3109726 71.19862152 -177.32018738 69.97976257 -177.3296814 68.72396851 C-177.27758905 58.2086628 -177.27758905 58.2086628 -173.9453125 53.5625 C-168.91144855 50.07180094 -163.43920743 48.09477767 -157.69140625 46.05859375 C-156.36531593 45.57983292 -156.36531593 45.57983292 -155.01243591 45.09140015 C-152.13798627 44.05501271 -149.26042597 43.02756617 -146.3828125 42 C-144.36253794 41.27308795 -142.34252061 40.54546063 -140.32275391 39.81713867 C-136.32165422 38.37472897 -132.31963442 36.93492164 -128.31689453 35.49707031 C-121.80594088 33.15555952 -115.31182974 30.76986258 -108.8203125 28.375 C-98.81642468 24.69402684 -88.79715637 21.05627697 -78.7734375 17.4296875 C-78.13567005 17.19891951 -77.4979026 16.96815151 -76.84080887 16.73039055 C-70.33655056 14.37701693 -63.83192278 12.02467129 -57.32615852 9.67546368 C-55.46829051 9.00437977 -53.61068494 8.3325694 -51.75308228 7.66075134 C-49.36813568 6.79900294 -46.98238707 5.93947051 -44.59579468 5.08229065 C-39.68204486 3.3115797 -34.78608204 1.5269614 -29.94824219 -0.44287109 C-29.22289276 -0.73393234 -28.49754333 -1.02499359 -27.75021362 -1.32487488 C-25.93845538 -2.06022875 -24.13631956 -2.8191812 -22.33544922 -3.58081055 C-14.45410877 -5.5724297 -7.3590599 -2.81040044 0 0 Z M-32.4453125 24.6875 C-33.6007959 25.09911377 -34.7562793 25.51072754 -35.94677734 25.93481445 C-39.2852672 27.12913363 -42.6165849 28.3412698 -45.9453125 29.5625 C-46.77321289 29.86559082 -47.60111328 30.16868164 -48.45410156 30.48095703 C-52.96475376 32.13996645 -57.45688366 33.84434875 -61.9453125 35.5625 C-70.24003158 38.72280081 -78.55431817 41.79162246 -86.9453125 44.6875 C-97.22563419 48.2398304 -107.39677324 52.0772356 -117.56054688 55.94775391 C-125.65559681 59.01802354 -133.79800137 61.92697281 -141.97924805 64.76000977 C-143.03769676 65.12731453 -144.09614548 65.49461929 -145.1866684 65.8730545 C-147.77261555 66.77031107 -150.3588344 67.66677534 -152.9453125 68.5625 C-153.12336824 84.21014358 -153.28896042 99.8578676 -153.44008827 115.50579166 C-153.51055843 122.77289746 -153.58496559 130.03992149 -153.66894531 137.30688477 C-153.74221035 143.64757455 -153.80777869 149.98829154 -153.86445653 156.32915205 C-153.89467145 159.68042897 -153.92964872 163.0314837 -153.97157669 166.38264656 C-154.42372929 203.03225092 -146.93020259 234.25215007 -123.9453125 263.5625 C-123.3164917 264.36719727 -122.6876709 265.17189453 -122.03979492 266.00097656 C-116.20147698 273.31213546 -109.88688729 279.97982248 -103.2578125 286.5625 C-102.72929687 287.08952515 -102.20078125 287.61655029 -101.65625 288.1595459 C-94.36422343 295.41469402 -87.00183683 302.33749051 -78.62890625 308.34082031 C-76.73887308 309.7123003 -74.88888072 311.12946206 -73.0390625 312.5546875 C-59.44356266 322.99458397 -45.14350213 331.84623104 -30.22021484 340.26367188 C-28.66068243 341.15406815 -27.11453565 342.06820517 -25.58056641 343.00195312 C-19.67480119 346.58969664 -19.67480119 346.58969664 -12.9453125 346.5625 C-9.68256649 345.16505683 -6.64151032 343.46153864 -3.5703125 341.6875 C-2.24410889 340.93702393 -2.24410889 340.93702393 -0.89111328 340.17138672 C1.76913001 338.65419052 4.41463131 337.11452075 7.0546875 335.5625 C7.78107422 335.13582031 8.50746094 334.70914062 9.25585938 334.26953125 C33.96159797 319.6027239 55.9766463 301.56999413 76.3671875 281.4375 C77.03226318 280.78555664 77.69733887 280.13361328 78.38256836 279.46191406 C79.29727905 278.54877441 79.29727905 278.54877441 80.23046875 277.6171875 C80.77614502 277.07562012 81.32182129 276.53405273 81.8840332 275.97607422 C83.26729627 274.61167009 83.26729627 274.61167009 83.0546875 272.5625 C83.7146875 272.5625 84.3746875 272.5625 85.0546875 272.5625 C109.22205886 247.36544114 122.24844643 213.10711727 122.18408203 178.55688477 C122.18583435 177.38835464 122.18758667 176.21982452 122.18939209 175.0158844 C122.1937706 171.17854296 122.19088808 167.3412481 122.1875 163.50390625 C122.18817387 160.8311304 122.18914308 158.15835594 122.19039917 155.48558044 C122.19221249 149.89834085 122.18983472 144.31111453 122.18505859 138.72387695 C122.1795989 132.2622947 122.18139432 125.80074392 122.186885 119.33916241 C122.19141778 113.78230506 122.19206643 108.22545719 122.18944633 102.66859859 C122.18788687 99.3531874 122.18807354 96.0377943 122.19098282 92.7223835 C122.19350961 89.03568481 122.18966922 85.3490476 122.18408203 81.66235352 C122.18711838 80.01121552 122.18711838 80.01121552 122.19021606 78.32672119 C122.18739624 77.32727982 122.18457642 76.32783844 122.18167114 75.29811096 C122.18129412 74.42672265 122.18091709 73.55533434 122.18052864 72.65754032 C122.18877895 70.50336556 122.18877895 70.50336556 121.0546875 68.5625 C119.18742864 67.69231554 119.18742864 67.69231554 116.875 66.96875 C115.53272339 66.51459717 115.53272339 66.51459717 114.16333008 66.05126953 C113.17872803 65.72497559 112.19412598 65.39868164 111.1796875 65.0625 C102.35635469 62.06945044 93.59411221 58.95099957 84.8671875 55.6875 C75.62192689 52.2379143 66.35380501 48.8641495 57.0546875 45.5625 C41.0294515 39.86699177 25.08172772 33.96831619 9.16796875 27.96875 C8.06614258 27.55375244 6.96431641 27.13875488 5.82910156 26.71118164 C3.74036688 25.92354005 1.65243012 25.1337781 -0.43457031 24.34155273 C-1.36495117 23.99036377 -2.29533203 23.6391748 -3.25390625 23.27734375 C-4.06657959 22.96917725 -4.87925293 22.66101074 -5.71655273 22.34350586 C-15.55986674 18.89419471 -22.9384766 21.21297291 -32.4453125 24.6875 Z " fill="#C31218" transform="translate(243.9453125,53.4375)"/>
<path d="M0 0 C12.5305949 9.75030882 20.76547895 22.10961188 23 38 C23.23260696 43.19082685 23.19004697 48.36917453 23.125 53.5625 C23.11494735 54.96679047 23.10582555 56.37108793 23.09765625 57.77539062 C23.07423166 61.1836687 23.03836558 64.59185736 23 68 C27.62 68 32.24 68 37 68 C37.06979817 78.48418045 37.12296179 88.96830475 37.15543652 99.45267105 C37.17103011 104.32204704 37.19215191 109.19126297 37.22631836 114.06054688 C37.25913834 118.76789656 37.27690033 123.47509317 37.28463173 128.18254852 C37.29013489 129.9701147 37.30088013 131.7576734 37.31719017 133.54517365 C37.4542284 149.19979683 36.25622945 162.47358141 25.5625 174.8125 C24.716875 175.534375 23.87125 176.25625 23 177 C22.26716797 177.64388672 22.26716797 177.64388672 21.51953125 178.30078125 C12.3412548 185.6913649 0.74993389 185.46446329 -10.4921875 185.43359375 C-11.9699019 185.43816913 -13.44761418 185.44347867 -14.92532349 185.44947815 C-18.00645651 185.45835601 -21.08732962 185.4560481 -24.16845703 185.44604492 C-28.08062204 185.43456962 -31.99188239 185.45477117 -35.90392876 185.48396206 C-38.95152306 185.50247428 -41.99890659 185.50200195 -45.04654312 185.49632454 C-46.48717644 185.49617311 -47.92782572 185.5020666 -49.36840439 185.51461601 C-60.87245746 185.60073538 -73.19391127 184.78776183 -81.9375 176.5 C-89.46817895 169.06812004 -94.92436767 158.72242203 -95.24050903 147.96925354 C-95.24623333 146.47763485 -95.24115736 144.98594773 -95.22705078 143.49438477 C-95.22734283 142.67406265 -95.22763489 141.85374054 -95.22793579 141.00856018 C-95.22655164 138.31939816 -95.21103384 135.63051938 -95.1953125 132.94140625 C-95.19157911 131.06811169 -95.18873368 129.19481516 -95.18673706 127.32151794 C-95.17912624 122.40766951 -95.15949978 117.4939406 -95.1373291 112.58013916 C-95.11681558 107.55930193 -95.10772359 102.53844525 -95.09765625 97.51757812 C-95.07625139 87.6783331 -95.0421464 77.83917652 -95 68 C-90.38 68 -85.76 68 -81 68 C-81.02320313 66.10636719 -81.04640625 64.21273437 -81.0703125 62.26171875 C-81.08908377 59.73698314 -81.1072825 57.21224323 -81.125 54.6875 C-81.14175781 53.44419922 -81.15851563 52.20089844 -81.17578125 50.91992188 C-81.26982457 33.00467009 -77.3031439 18.72583699 -64.71484375 5.62109375 C-47.43787025 -10.99875239 -19.94429206 -13.8607645 0 0 Z M-61 19 C-68.27271851 28.64425716 -69.45586784 38.0955901 -69.28125 49.86865234 C-69.24965859 52.02328533 -69.24022658 54.17718793 -69.234375 56.33203125 C-69.82440663 62.64893918 -69.82440663 62.64893918 -68 68 C-65.57142965 68.10029857 -63.17128387 68.13618425 -60.7421875 68.12939453 C-59.98286926 68.13114685 -59.22355103 68.13289917 -58.44122314 68.13470459 C-55.91912584 68.1391233 -53.39709807 68.13618506 -50.875 68.1328125 C-49.13004544 68.13348553 -47.38509096 68.13445555 -45.64013672 68.13571167 C-41.97818105 68.13718867 -38.31624972 68.13503403 -34.65429688 68.13037109 C-29.94955508 68.1246738 -25.24487032 68.1279528 -20.54013062 68.13394356 C-16.93546109 68.13754912 -13.33080518 68.13641061 -9.72613525 68.13381577 C-7.99090569 68.13314648 -6.25567491 68.13397496 -4.52044678 68.13629532 C-2.09953513 68.13882177 0.32128286 68.13498138 2.7421875 68.12939453 C3.46637878 68.13141876 4.19057007 68.13344299 4.93670654 68.13552856 C8.25154091 68.4099048 8.25154091 68.4099048 11 67 C11.61007311 58.45897641 10.91502093 49.77598028 10.3125 41.25 C10.25924561 40.29270996 10.20599121 39.33541992 10.15112305 38.34912109 C9.32015699 27.90037559 4.95131129 19.08038768 -3.08203125 12.22265625 C-22.25969386 -2.43168045 -45.65400413 0.89172487 -61 19 Z M-43.375 99.0625 C-46.76491341 103.34974343 -47.24108725 107.64441902 -47 113 C-46.28799011 116.67871777 -45.77826494 119.10643655 -43.3125 121.9375 C-40.1567173 126.8965871 -43.91576042 137.42772762 -44.98242188 143.11328125 C-46.01510168 148.98378615 -46 153.83522641 -46 160 C-34.78 160 -23.56 160 -12 160 C-12.65672948 150.14905785 -13.44854023 140.9372935 -15.33398438 131.34765625 C-16.39629577 125.01189773 -15.6277496 122.28824529 -12 117 C-10.61720014 110.93695447 -10.71253645 106.38419176 -13.6875 100.875 C-16.87403196 96.91336567 -20.18435597 94.60521468 -25 93 C-32.38394661 92.50773689 -37.9700761 93.60610064 -43.375 99.0625 Z " fill="#C31218" transform="translate(257,149)"/>
<path d="M0 0 C0.65737152 -0.0065712 1.31474304 -0.0131424 1.99203491 -0.01991272 C4.16778691 -0.03962042 6.34346973 -0.0513067 8.51928711 -0.0612793 C9.63830823 -0.06739259 9.63830823 -0.06739259 10.77993584 -0.07362938 C14.73365882 -0.09448598 18.68734721 -0.10878571 22.64111328 -0.11816406 C26.70392672 -0.12918783 30.76618631 -0.16354133 34.82880497 -0.20333576 C37.96975137 -0.2296282 41.11056879 -0.23786732 44.25161552 -0.24144554 C45.74778391 -0.24628422 47.2439476 -0.25781968 48.7400074 -0.27648354 C61.27239706 -0.42302786 71.79339033 1.74117746 81.48413086 10.17700195 C89.76601703 19.50136331 92.62406673 27.96409126 93.48413086 40.17700195 C86.88413086 40.17700195 80.28413086 40.17700195 73.48413086 40.17700195 C72.49413086 35.72200195 72.49413086 35.72200195 71.48413086 31.17700195 C68.49533944 25.7971774 65.99280621 22.96695853 60.11303711 21.11547852 C54.50489209 19.77095197 48.90996324 19.89053781 43.17163086 19.91137695 C42.0033374 19.9094635 40.83504395 19.90755005 39.63134766 19.90557861 C37.17048933 19.90422252 34.70962372 19.90787858 32.2487793 19.91625977 C28.49633615 19.92696713 24.74437173 19.91634453 20.99194336 19.90356445 C18.59350481 19.90488615 16.19506656 19.90744875 13.79663086 19.91137695 C12.6818335 19.90732849 11.56703613 19.90328003 10.41845703 19.89910889 C2.73164975 19.94505592 -5.26167872 20.13890411 -11.51586914 25.17700195 C-16.93682442 31.93372784 -16.09784753 39.71555105 -16.04711914 47.9621582 C-16.04981718 49.50719954 -16.05370219 51.05223922 -16.05871582 52.59727478 C-16.06459453 55.82592022 -16.05609992 59.05412129 -16.03735352 62.28271484 C-16.01454511 66.41093525 -16.02770837 70.53811638 -16.05164337 74.66629887 C-16.06612947 77.85346748 -16.06148296 81.04039151 -16.0511322 84.22756767 C-16.04847365 85.74933433 -16.05170392 87.27112357 -16.06105042 88.79286385 C-16.07126549 90.92288797 -16.05565052 93.05125126 -16.03344727 95.18115234 C-16.03026489 96.39025772 -16.02708252 97.5993631 -16.02380371 98.84510803 C-15.23993934 103.98701623 -12.74991183 107.06335367 -8.95336914 110.48950195 C-5.09051305 113.16378694 -2.10657751 113.31251109 2.48095703 113.35400391 C3.71621628 113.36683914 4.95147552 113.37967438 6.22416687 113.39289856 C7.57514035 113.40106833 8.9261184 113.40851161 10.27709961 113.4152832 C10.95941462 113.41935873 11.64172962 113.42343426 12.34472084 113.42763329 C15.95897746 113.44848057 19.5731963 113.46278583 23.1875 113.47216797 C26.90526385 113.48320622 30.62242484 113.517579 34.33997631 113.55733967 C37.2114822 113.58359708 40.0828467 113.591868 42.95446205 113.59544945 C44.32389695 113.60029501 45.6933264 113.61185071 47.06264305 113.63048744 C54.94260866 113.73103594 60.82371984 113.61510705 67.48413086 109.17700195 C75.54578122 99.04826175 72.82475962 92.34254045 73.48413086 77.17700195 C55.33413086 77.17700195 37.18413086 77.17700195 18.48413086 77.17700195 C18.48413086 70.57700195 18.48413086 63.97700195 18.48413086 57.17700195 C43.23413086 57.17700195 67.98413086 57.17700195 93.48413086 57.17700195 C93.54600586 63.88012695 93.60788086 70.58325195 93.67163086 77.48950195 C93.71259888 80.62832886 93.71259888 80.62832886 93.75439453 83.83056641 C93.86696291 98.45501043 92.77603237 111.12262675 82.44506836 122.40356445 C74.14759026 130.23192718 65.52326153 134.25294991 54.12426758 134.35400391 C52.22606766 134.37325676 52.22606766 134.37325676 50.28952026 134.39289856 C48.91429033 134.40106965 47.5390559 134.40851267 46.16381836 134.4152832 C45.46501682 134.41935873 44.76621529 134.42343426 44.04623795 134.42763329 C40.34422356 134.44844718 36.64224567 134.46276659 32.94018555 134.47216797 C29.14430969 134.4831969 25.34902573 134.51756867 21.55335808 134.55733967 C18.61053488 134.58367143 15.66784896 134.59187453 12.72491837 134.59544945 C11.32726183 134.60027619 9.92960978 134.61177641 8.53207016 134.63048744 C-5.32779471 134.80445599 -16.19706 131.7587533 -26.51586914 122.17700195 C-35.55556242 110.99285589 -36.97971278 100.29802607 -36.91430664 86.3371582 C-36.91633211 84.80455894 -36.91924746 83.27196062 -36.92300415 81.73936462 C-36.92740664 78.53952792 -36.92106485 75.33994385 -36.90698242 72.14013672 C-36.88990614 68.06408813 -36.89973477 63.98863303 -36.91769981 59.91260624 C-36.92860661 56.75104912 -36.9250597 53.58962972 -36.91731644 50.42806816 C-36.91533266 48.92635463 -36.91770869 47.42462808 -36.9247551 45.92292976 C-36.97734794 31.56600507 -34.85171217 21.14048492 -24.85571289 10.3918457 C-17.94308284 4.00215693 -9.37139453 0.07759255 0 0 Z " fill="#C31218" transform="translate(926.515869140625,163.822998046875)"/>
<path d="M0 0 C0.66887741 -0.0065712 1.33775482 -0.0131424 2.02690125 -0.01991272 C4.2344882 -0.03957702 6.44200726 -0.05129453 8.6496582 -0.0612793 C9.40703592 -0.06535482 10.16441364 -0.06943035 10.9447422 -0.07362938 C14.95567168 -0.09446353 18.96656724 -0.10877519 22.97753906 -0.11816406 C27.10207258 -0.12920713 31.22606344 -0.16358977 35.35040569 -0.20333576 C38.53763266 -0.22959406 41.72473227 -0.23786413 44.91205788 -0.24144554 C46.43138088 -0.24628983 47.95069903 -0.2578417 49.46991539 -0.27648354 C57.79375668 -0.3722533 64.96997875 -0.26452457 72.26293945 4.17700195 C73.78467773 5.07999023 73.78467773 5.07999023 75.3371582 6.0012207 C85.90775598 13.53810432 90.39955349 21.55385001 93.26293945 34.17700195 C93.78148809 39.29942681 93.80519068 44.38973106 93.7590332 49.5324707 C93.75918874 50.96967136 93.76068671 52.40687242 93.76344299 53.84407043 C93.7648152 56.83178631 93.75246533 59.81901523 93.72949219 62.80664062 C93.70103271 66.60909176 93.70388162 70.41074082 93.7165823 74.21325207 C93.72358033 77.1723754 93.71570484 80.13131768 93.70332527 83.09041786 C93.69885615 84.49164444 93.69843355 85.89289076 93.70239067 87.29411888 C93.7226152 100.74399096 91.54782344 112.20828786 82.22387695 122.4074707 C73.92496821 130.22252081 65.31319753 134.25271683 53.91894531 134.35400391 C52.65670639 134.36683914 51.39446747 134.37967438 50.09397888 134.39289856 C48.7219177 134.40107055 47.34985202 134.4085134 45.9777832 134.4152832 C45.28022982 134.41935873 44.58267643 134.42343426 43.86398506 134.42763329 C40.16730172 134.44845011 36.47065494 134.46276726 32.77392578 134.47216797 C28.9871152 134.48318672 25.20089961 134.51754567 21.41429806 134.55733967 C18.47572363 134.58370116 15.53728642 134.5918772 12.5986042 134.59544945 C11.20456515 134.60027001 9.81053029 134.61175175 8.41660881 134.63048744 C-4.84612797 134.79758688 -15.9930267 132.65869643 -25.73706055 123.17700195 C-35.8588869 112.37235398 -37.35256562 101.61551418 -37.26831055 87.36450195 C-37.27101138 85.74364998 -37.2748987 84.12279961 -37.27990723 82.50195312 C-37.28577453 79.11971474 -37.27732962 75.73790149 -37.25854492 72.35571289 C-37.23575662 68.04526417 -37.24889472 63.73581204 -37.27283478 59.42539978 C-37.28736829 56.08281094 -37.28265245 52.74045393 -37.27232361 49.39785767 C-37.26967712 47.80961994 -37.27285197 46.22136037 -37.28224182 44.63314819 C-37.34644521 30.72549347 -34.85999346 20.41790277 -24.85424805 10.2668457 C-17.34050196 3.3276802 -10.21751265 0.08329783 0 0 Z M-10.54956055 24.86450195 C-11.09225586 25.32211914 -11.63495117 25.77973633 -12.1940918 26.2512207 C-17.82944479 33.28471191 -17.17907582 41.04376367 -17.13549805 49.6496582 C-17.13752206 51.06017711 -17.14043622 52.47069498 -17.14419556 53.88121033 C-17.1486021 56.82732169 -17.14224124 59.77315894 -17.12817383 62.71923828 C-17.11106676 66.48411612 -17.12094275 70.24835297 -17.13889122 74.01320744 C-17.14976109 76.92240683 -17.14626841 79.83145564 -17.13850784 82.74065971 C-17.13651548 84.12845372 -17.13893104 85.51626168 -17.1459465 86.90403938 C-17.15361478 88.84666791 -17.13984347 90.78934479 -17.12524414 92.73193359 C-17.12285736 93.83444962 -17.12047058 94.93696564 -17.11801147 96.07289124 C-16.36558778 102.20388156 -13.33187594 106.22332359 -8.73706055 110.17700195 C-4.52036544 112.63015639 -1.44797551 113.55593148 3.41674805 113.58105469 C4.6117392 113.59373886 5.80673035 113.60642303 7.03793335 113.61949158 C8.31616974 113.61655594 9.59440613 113.6136203 10.91137695 113.6105957 C12.25127424 113.61516335 13.59116919 113.62047065 14.93106079 113.6264801 C17.73351584 113.63539105 20.53568563 113.6330123 23.33813477 113.62304688 C26.91130481 113.6115726 30.48348428 113.63175361 34.05652428 113.66096401 C36.82256216 113.67940476 39.58836623 113.67901785 42.35445023 113.67332649 C44.30635017 113.67310062 46.25822839 113.68992965 48.21005249 113.70713806 C56.06993464 113.64576002 62.20289149 113.10774903 68.1027832 107.39575195 C68.46500977 106.82856445 68.82723633 106.26137695 69.20043945 105.67700195 C69.58071289 105.10981445 69.96098633 104.54262695 70.3527832 103.95825195 C72.33133582 100.08606314 72.40097703 96.36584624 72.43994141 92.06665039 C72.45277664 90.83146667 72.46561188 89.59628296 72.47883606 88.32366943 C72.48700521 86.97790938 72.49444861 85.63214476 72.5012207 84.28637695 C72.50529623 83.60497902 72.50937176 82.92358109 72.51357079 82.22153473 C72.53439566 78.6137574 72.54871195 75.00601769 72.55810547 71.39819336 C72.56915374 67.68830539 72.60354468 63.97901985 72.64327717 60.26934433 C72.66953107 57.40212963 72.67780507 54.53505654 72.68138695 51.66773224 C72.68623148 50.30108834 72.69778416 48.93444985 72.71642494 47.5679245 C72.83928282 37.96339814 72.38589352 31.48736302 65.51293945 24.30200195 C58.29294265 19.58123481 50.51951965 19.88044524 42.16918945 19.91137695 C41.02309204 19.9094635 39.87699463 19.90755005 38.69616699 19.90557861 C36.28238708 19.9042227 33.86859973 19.90787752 31.45483398 19.91625977 C27.77481599 19.9269674 24.09528614 19.91634395 20.4152832 19.90356445 C18.06241755 19.90488615 15.7095522 19.90744876 13.35668945 19.91137695 C12.26376587 19.90732849 11.17084229 19.90328003 10.0447998 19.89910889 C-0.99995396 19.89863667 -0.99995396 19.89863667 -10.54956055 24.86450195 Z " fill="#C21218" transform="translate(774.737060546875,163.822998046875)"/>
<path d="M0 0 C13.98375 -0.0825 27.9675 -0.165 42.375 -0.25 C46.77376465 -0.28641602 51.1725293 -0.32283203 55.70458984 -0.36035156 C61.1184082 -0.37841797 61.1184082 -0.37841797 63.66104126 -0.3817749 C65.41897646 -0.38787629 67.17689599 -0.40185896 68.9347229 -0.42230225 C84.66134715 -0.5958957 95.03357309 1.39598862 106.71875 12.65625 C115.93251137 22.62215515 118.32995981 34.662202 118.24291992 47.84008789 C118.24481827 48.76653107 118.24671661 49.69297424 118.24867249 50.64749146 C118.25234136 53.6726358 118.24173785 56.69753372 118.23046875 59.72265625 C118.22927537 61.83589144 118.22882412 63.94912716 118.2290802 66.06236267 C118.22752245 70.47088993 118.2192822 74.87933515 118.20581055 79.2878418 C118.18872761 84.95078487 118.18499925 90.61363882 118.18575573 96.27660465 C118.18548465 100.63015093 118.18001507 104.98367756 118.17275429 109.33721733 C118.16956484 111.42691334 118.16759957 113.51661158 118.16686058 115.60630989 C118.16470525 118.51240009 118.15598142 121.41839334 118.14526367 124.32446289 C118.14571686 125.19347733 118.14617004 126.06249176 118.14663696 126.95783997 C118.11448322 132.88551678 118.11448322 132.88551678 117 134 C115.58429877 134.08651611 114.164405 134.10704904 112.74609375 134.09765625 C111.89208984 134.09443359 111.03808594 134.09121094 110.15820312 134.08789062 C109.26037109 134.07951172 108.36253906 134.07113281 107.4375 134.0625 C106.53580078 134.05798828 105.63410156 134.05347656 104.70507812 134.04882812 C102.46998686 134.03700225 100.23502563 134.0205222 98 134 C97.99191315 132.84234634 97.98382629 131.68469269 97.97549438 130.49195862 C97.89787347 119.56057024 97.81009424 108.62930388 97.71247292 97.69807529 C97.66261341 92.07877108 97.6162826 86.45948472 97.578125 80.84008789 C97.54114136 75.41296486 97.49474624 69.98599512 97.44193649 64.55900383 C97.4234619 62.49269244 97.40832859 60.42634827 97.39665604 58.35998726 C97.37967449 55.45671147 97.35061145 52.55378145 97.31884766 49.65063477 C97.31668747 48.80402283 97.31452728 47.95741089 97.31230164 47.08514404 C97.20132913 39.09977895 96.46857538 31.18812478 91 25 C71.73042841 12.39600349 36.79534986 20 21 20 C20.67 57.62 20.34 95.24 20 134 C13.4 134 6.8 134 0 134 C0 89.78 0 45.56 0 0 Z " fill="#003DD0" transform="translate(480,164)"/>
<path d="M0 0 C20.66625 -0.1546875 20.66625 -0.1546875 41.75 -0.3125 C46.07834961 -0.35802002 50.40669922 -0.40354004 54.86621094 -0.45043945 C60.20751953 -0.47302246 60.20751953 -0.47302246 62.71881104 -0.47721863 C64.44918269 -0.48482823 66.17953011 -0.50227001 67.909729 -0.52787781 C81.22750841 -0.7148999 92.42255713 0.460956 103.19140625 9.21484375 C111.94303395 17.85305943 116.95641458 29.13453268 117.12025452 41.40402222 C117.1231344 43.13116361 117.12053822 44.85831967 117.11352539 46.58544922 C117.11367142 47.53242172 117.11381744 48.47939423 117.1139679 49.45506287 C117.11327364 52.57162806 117.10550406 55.6881328 117.09765625 58.8046875 C117.09579034 60.97087573 117.09436725 63.13706437 117.09336853 65.30325317 C117.08955698 70.99468152 117.07973832 76.68608421 117.06866455 82.37750244 C117.05842114 88.18916476 117.05386463 94.00083125 117.04882812 99.8125 C117.03811482 111.2083464 117.02052905 122.60416705 117 134 C110.4 134 103.8 134 97 134 C96.9906543 131.04289063 96.98130859 128.08578125 96.97167969 125.0390625 C96.93787472 115.25608417 96.88230599 105.47331599 96.81609726 95.69050598 C96.77663038 89.76061922 96.74443784 83.83088079 96.72900391 77.90087891 C96.71383242 72.17540163 96.67937734 66.45033217 96.63169098 60.72503662 C96.6168824 58.54347279 96.60895929 56.36185074 96.60811615 54.18023682 C96.60574325 51.1184163 96.57863636 48.05771981 96.54589844 44.99609375 C96.5509288 44.09913284 96.55595917 43.20217194 96.56114197 42.2780304 C96.4453544 35.25396167 94.67295117 29.9087998 89.875 24.6875 C70.50128489 13.31597156 34.96415804 20 20 20 C19.67 57.62 19.34 95.24 19 134 C12.73 134 6.46 134 0 134 C0 89.78 0 45.56 0 0 Z " fill="#003DD0" transform="translate(1085,164)"/>
<path d="M0 0 C6.27 0 12.54 0 19 0 C19.01458252 2.92681641 19.02916504 5.85363281 19.04418945 8.86914062 C19.09458463 18.55231366 19.16118857 28.23532672 19.23571491 37.91834259 C19.28039302 43.78767009 19.31965499 49.65692858 19.34643555 55.52636719 C19.37249375 61.19343685 19.41291449 66.86024061 19.46318626 72.52714539 C19.47983786 74.68638292 19.49136274 76.84566642 19.49761391 79.00495911 C19.50727336 82.03548895 19.53535547 85.06534111 19.56762695 88.09570312 C19.56547432 89.42711838 19.56547432 89.42711838 19.5632782 90.78543091 C19.65244577 96.72785836 20.20070142 102.90402302 24.3808794 107.52722931 C29.21999071 111.71708289 32.7998954 113.24146214 39.14550781 113.31884766 C40.38649231 113.33871735 41.62747681 113.35858704 42.90606689 113.37905884 C44.25508445 113.39093424 45.60410389 113.40259715 46.953125 113.4140625 C48.33747506 113.43277907 49.72181378 113.45235285 51.10614014 113.4727478 C54.74252627 113.52402362 58.37894937 113.56367346 62.01550293 113.60089111 C65.72917797 113.64095945 69.44269983 113.69203884 73.15625 113.7421875 C80.43740277 113.83889293 87.71861511 113.92229652 95 114 C95 120.6 95 127.2 95 134 C86.97578805 134.09081509 78.95198392 134.16400939 70.92739391 134.20724869 C67.20017908 134.22801431 63.47333781 134.25612611 59.74633789 134.30175781 C56.14122728 134.3456147 52.53647315 134.36921972 48.9311161 134.37950897 C47.564145 134.38682972 46.19719067 134.4011229 44.83037376 134.42292023 C30.91853755 134.63570591 20.4430365 131.40521921 10 122 C1.95628257 113.01687032 -0.47969243 103.33959612 -0.34057617 91.50146484 C-0.34101425 90.50514038 -0.34145233 89.50881592 -0.34190369 88.4822998 C-0.33983193 85.224972 -0.31657741 81.96817417 -0.29296875 78.7109375 C-0.28736706 76.43836752 -0.28309967 74.1657939 -0.28010559 71.89321899 C-0.26870202 65.93871903 -0.2392736 59.98444182 -0.20599365 54.0300293 C-0.17519576 47.94322726 -0.16157954 41.8563889 -0.14648438 35.76953125 C-0.11439944 23.84624102 -0.06166832 11.92317396 0 0 Z " fill="#C31218" transform="translate(620,164)"/>
<path d="M0 0 C6.6 0 13.2 0 20 0 C20 44.22 20 88.44 20 134 C13.4 134 6.8 134 0 134 C0 89.78 0 45.56 0 0 Z " fill="#C31218" transform="translate(1042,164)"/>
</svg>
