<svg version="1.1" id="Layer_1" xmlns="http://www.w3.org/2000/svg" xmlns:xlink="http://www.w3.org/1999/xlink" x="0px" y="0px"
	 width="100%" viewBox="0 0 1280 450" enable-background="new 0 0 1280 450" xml:space="preserve">
<path fill="#C31218" opacity="1.000000" stroke="none" 
	d="
M304.903809,77.058884 
	C330.533783,86.388252 355.782593,95.623581 380.995911,104.954910 
	C387.696930,107.434921 389.995575,110.958527 389.996704,118.013367 
	C390.003174,158.829529 390.124329,199.646255 389.944611,240.461624 
	C389.861664,259.298584 385.020599,277.169952 377.303497,294.261353 
	C367.564392,315.830872 353.677032,334.400787 337.272156,351.448364 
	C314.475159,375.138458 288.363586,394.315887 260.195068,410.896851 
	C251.984055,415.730133 243.624023,420.423676 234.924820,424.256409 
	C231.605103,425.719055 226.480637,425.958588 223.305145,424.424133 
	C196.139618,411.297791 170.838257,395.194672 147.426376,376.057190 
	C125.997406,358.540527 106.901474,338.999908 92.064301,315.534088 
	C81.546303,298.899261 73.572105,281.113983 70.205643,261.644043 
	C68.694878,252.906601 68.146301,243.912155 68.094223,235.028885 
	C67.872559,197.212753 67.999825,159.394577 68.000099,121.577156 
	C68.000183,109.863472 69.966125,107.036484 81.010109,103.075096 
	C113.719994,91.342339 146.461838,79.698090 179.138519,67.873672 
	C194.093750,62.461956 208.856415,56.511028 223.869858,51.273117 
	C226.993912,50.183189 231.171295,50.224831 234.299286,51.334587 
	C257.782166,59.665897 281.123657,68.395683 304.903809,77.058884 
M363.753937,122.897377 
	C357.410522,120.696526 351.030579,118.594948 344.730957,116.275200 
	C329.201019,110.556511 313.724060,104.694099 298.196014,98.970238 
	C279.270508,91.994011 260.287384,85.173241 241.386215,78.132217 
	C234.637955,75.618378 228.110886,73.837929 220.862015,76.537529 
	C191.995743,87.287766 163.055176,97.838844 134.126572,108.421204 
	C120.163231,113.529137 106.165405,118.542786 91.994881,123.667221 
	C91.994881,165.164230 91.868202,206.530350 92.067963,247.894882 
	C92.132370,261.231873 96.373413,273.691132 101.920044,285.712036 
	C107.668556,298.170441 114.807053,309.667542 123.545555,320.345520 
	C137.677216,337.613708 153.391922,353.210052 171.563293,366.030518 
	C187.371231,377.183441 203.996674,387.179901 220.294220,397.635406 
	C225.623917,401.054596 230.807419,402.203705 236.765518,398.182068 
	C244.780548,392.771881 253.631439,388.582184 261.541656,383.038361 
	C276.592621,372.490051 292.054443,362.293243 305.833710,350.224243 
	C323.309937,334.917236 338.897491,317.675049 350.527161,297.112213 
	C360.369812,279.709106 366.369720,261.143524 366.773590,241.430344 
	C367.544891,203.782089 367.031372,166.106674 366.894012,128.443115 
	C366.887421,126.635178 365.370972,124.832741 363.753937,122.897377 
z"/>
<path fill="#C31218" opacity="1.000000" stroke="none" 
	d="
M1008.968262,175.988434 
	C1016.725769,184.043900 1020.257812,193.478104 1020.984497,204.592499 
	C1014.388855,204.592499 1008.011475,204.592499 1002.377197,204.592499 
	C1000.452942,199.983063 999.198059,195.338394 996.737854,191.457855 
	C992.783752,185.220993 985.818176,184.257843 979.237915,184.111649 
	C963.749207,183.767532 948.242004,183.750092 932.753723,184.103394 
	C924.544678,184.290665 916.597168,186.068130 912.744507,194.769897 
	C911.840637,196.811447 911.088379,199.128281 911.074768,201.323456 
	C910.948975,221.651184 911.387024,241.991409 910.787659,262.302216 
	C910.581604,269.285034 919.735596,278.998932 926.860046,278.996704 
	C946.022156,278.990692 965.186096,279.146271 984.345520,278.918732 
	C992.321411,278.824005 1000.489014,270.704468 1000.914551,262.714966 
	C1001.267456,256.088043 1000.986694,249.427368 1000.986694,242.114883 
	C982.636108,242.114883 964.597961,242.114883 946.284912,242.114883 
	C946.284912,235.199417 946.284912,228.951965 946.284912,222.350983 
	C970.997864,222.350983 995.576416,222.350983 1020.763916,222.350983 
	C1020.839417,224.002289 1020.984863,225.756287 1020.988953,227.510620 
	C1021.011719,237.174942 1020.929016,246.839966 1021.015015,256.503601 
	C1021.185852,275.697418 1011.073975,290.777466 993.302734,297.160950 
	C990.126953,298.301697 986.585999,298.888123 983.205994,298.920288 
	C965.378479,299.089905 947.547913,298.907471 929.719604,299.026459 
	C912.515320,299.141296 897.167664,286.854523 892.212402,270.160156 
	C891.291870,267.058899 891.068909,263.660461 891.051025,260.396271 
	C890.946899,241.401352 891.166992,222.403702 890.954895,203.410583 
	C890.724854,182.813141 909.665283,164.085907 929.146301,164.877090 
	C944.284424,165.491882 959.490173,165.513947 974.623535,164.843323 
	C987.582703,164.269028 999.147034,166.629425 1008.968262,175.988434 
z"/>
<path fill="#C31218" opacity="1.000000" stroke="none" 
	d="
M739.000000,246.999878 
	C739.000000,232.180496 739.489502,217.840164 738.879150,203.546783 
	C738.071838,184.640991 753.560486,168.939194 769.776245,165.207016 
	C771.048950,164.914108 772.422363,165.008545 773.748962,165.007828 
	C793.896057,164.996948 814.047852,164.743164 834.188416,165.106155 
	C844.624695,165.294235 852.729797,170.982559 859.272705,178.709717 
	C866.861328,187.671738 869.359680,198.246445 869.095825,209.904129 
	C868.719116,226.546112 869.218811,243.206665 868.937805,259.852448 
	C868.661804,276.202911 857.719604,291.949799 841.498718,297.077332 
	C837.958069,298.196533 834.127991,298.876740 830.422241,298.916077 
	C812.774719,299.103516 795.123840,299.057739 777.474609,298.984375 
	C758.325623,298.904816 743.330261,285.938934 739.328369,267.924408 
	C737.881958,261.413239 739.033813,254.324829 739.000000,246.999878 
M826.865967,278.040222 
	C839.642456,279.450073 848.450806,268.886749 848.113342,256.700165 
	C847.657288,240.229279 847.707764,223.729385 848.094788,207.254959 
	C848.390991,194.644592 841.638367,185.310684 826.777954,185.061661 
	C811.297791,184.802277 795.807129,184.821320 780.326172,185.055649 
	C765.469666,185.280502 758.648193,194.532852 758.908325,207.150330 
	C759.271973,224.791870 758.962524,242.446701 759.050232,260.095306 
	C759.060669,262.175049 759.514465,264.333435 760.179993,266.315186 
	C763.210205,275.338715 770.241699,278.170563 779.751526,278.524292 
	C792.545227,278.682800 805.338623,278.892273 818.132812,278.957581 
	C820.750488,278.970978 823.370972,278.443878 826.865967,278.040222 
z"/>
<path fill="#003DD0" opacity="1.000000" stroke="none" 
	d="
M599.000000,273.000000 
	C598.999756,280.331787 598.800537,287.171539 599.074341,293.992310 
	C599.237061,298.045990 597.674561,299.270996 593.829590,299.059784 
	C589.183167,298.804596 584.512085,298.999329 579.000061,298.999329 
	C579.000061,296.891113 579.000061,294.982361 579.000061,293.073578 
	C579.000000,265.413208 579.169800,237.750900 578.850586,210.094208 
	C578.789795,204.829300 577.698975,199.166290 575.493652,194.426712 
	C571.631409,186.126602 563.315796,184.302200 555.136230,184.112747 
	C538.815430,183.734756 522.477356,184.149155 506.151489,183.903320 
	C501.693024,183.836182 500.925476,185.635757 500.937683,189.521912 
	C501.045563,223.847076 501.000092,258.172729 501.000000,292.498230 
	C501.000000,294.461090 501.000000,296.423920 501.000000,298.690857 
	C494.303802,298.690857 488.048309,298.690857 481.394104,298.690857 
	C481.394104,254.358231 481.394104,209.991272 481.394104,165.000061 
	C483.206390,165.000061 484.979614,165.000046 486.752838,165.000046 
	C510.914001,165.000031 535.075378,165.056732 559.236267,164.978836 
	C573.847046,164.931732 584.024719,172.458069 591.926636,183.845825 
	C597.365967,191.684616 598.942688,200.699341 598.976440,210.014267 
	C599.051819,230.842606 599.000000,251.671387 599.000000,273.000000 
z"/>
<path fill="#003DD0" opacity="1.000000" stroke="none" 
	d="
M1203.000000,287.971161 
	C1203.000000,291.765625 1203.000000,295.064728 1203.000000,298.679199 
	C1196.328979,298.679199 1190.072754,298.679199 1183.000000,298.679199 
	C1183.000000,296.843109 1183.000000,294.928741 1183.000000,293.014343 
	C1183.000000,263.688477 1183.007080,234.362610 1182.996094,205.036743 
	C1182.992310,194.908890 1176.049316,186.559341 1166.111450,185.067520 
	C1161.727661,184.409470 1157.258179,184.085800 1152.823853,184.046555 
	C1138.661865,183.921234 1124.495972,184.134048 1110.336182,183.917831 
	C1106.169800,183.854218 1104.903931,185.178864 1104.921021,189.336838 
	C1105.061157,223.660873 1105.000122,257.985718 1105.000000,292.310303 
	C1104.999878,294.291748 1105.000000,296.273224 1105.000000,298.624329 
	C1098.654541,298.624329 1092.614502,298.624329 1086.283936,298.624329 
	C1086.283936,254.255814 1086.283936,210.007675 1086.283936,165.000092 
	C1088.051758,165.000092 1089.806152,165.000092 1091.560669,165.000092 
	C1115.221313,165.000061 1138.882080,165.055954 1162.542480,164.980225 
	C1178.181396,164.930176 1189.151001,172.517242 1197.125732,185.419327 
	C1201.428589,192.380463 1202.918579,200.046768 1202.954468,207.996490 
	C1203.074463,234.489120 1203.000000,260.982605 1203.000000,287.971161 
z"/>
<path fill="#C31218" opacity="1.000000" stroke="none" 
	d="
M644.185303,271.671631 
	C649.035156,277.006195 654.558105,279.258209 661.583252,279.108826 
	C677.735535,278.765442 693.900208,279.000031 710.059814,279.000061 
	C711.852051,279.000061 713.644226,279.000092 715.706726,279.000092 
	C715.706726,285.782349 715.706726,292.029022 715.706726,298.999847 
	C713.842834,298.999847 712.080444,298.999847 710.318054,298.999847 
	C693.325439,298.999908 676.331543,298.866638 659.340637,299.035339 
	C640.110352,299.226288 620.743530,281.494873 620.931946,260.630676 
	C621.199707,230.979324 621.000000,201.323761 621.000000,171.669998 
	C621.000000,169.695572 621.000000,167.721130 621.000000,165.374649 
	C627.276489,165.374649 633.193604,165.374649 639.999939,165.374649 
	C639.999939,167.137680 639.999939,169.044815 639.999939,170.951950 
	C639.999939,199.772736 639.824951,228.595657 640.176270,257.412170 
	C640.233276,262.089081 642.623596,266.737579 644.185303,271.671631 
z"/>
<path fill="#C31218" opacity="1.000000" stroke="none" 
	d="
M1063.000000,255.000000 
	C1063.000000,269.783203 1063.000000,284.066376 1063.000000,298.672882 
	C1056.291138,298.672882 1050.045410,298.672882 1043.397461,298.672882 
	C1043.397461,254.333038 1043.397461,209.994339 1043.397461,165.327240 
	C1049.709351,165.327240 1055.954224,165.327240 1063.000000,165.327240 
	C1063.000000,195.048538 1063.000000,224.774277 1063.000000,255.000000 
z"/>
<path fill="#C04141" opacity="1.000000" stroke="none" 
	d="
M779.380737,278.345093 
	C794.359985,278.122650 809.710022,278.079437 825.525146,278.101074 
	C823.370972,278.443878 820.750488,278.970978 818.132812,278.957581 
	C805.338623,278.892273 792.545227,278.682800 779.380737,278.345093 
z"/>
<path fill="#C31218" opacity="1.000000" stroke="none" 
	d="
M225.000000,335.000000 
	C217.003616,335.000000 209.506348,335.073273 202.011063,334.982727 
	C190.864960,334.848083 181.055908,331.498596 173.407501,322.935822 
	C167.260178,316.053558 163.393036,307.800568 163.204102,298.886353 
	C162.650024,272.744324 163.017715,246.582748 163.040787,220.428833 
	C163.041351,219.799500 163.235001,219.170334 163.413940,218.083344 
	C167.783203,218.083344 172.044098,218.083344 177.000000,218.083344 
	C177.000000,210.678680 176.907608,203.745071 177.020340,196.814819 
	C177.219528,184.570999 179.924637,173.144974 187.362213,163.008926 
	C196.131729,151.057648 207.708878,143.850708 222.308533,142.082886 
	C248.716217,138.885239 268.573944,153.609238 277.134216,174.818817 
	C279.476227,180.621597 280.357056,187.205902 280.850952,193.514343 
	C281.470154,201.423157 280.999939,209.417282 280.999939,217.859985 
	C285.725006,217.859985 289.984039,217.859985 294.623535,217.859985 
	C294.772736,219.748367 294.983398,221.181107 294.984589,222.614014 
	C295.004944,246.935593 295.404358,271.266510 294.845337,295.575256 
	C294.517517,309.830475 289.165100,322.477692 276.225494,329.896912 
	C271.040924,332.869629 264.509216,334.362366 258.468994,334.783386 
	C247.527466,335.546112 236.494690,334.999817 225.000000,335.000000 
M214.500000,218.000000 
	C230.817749,217.999802 247.137512,217.858688 263.451935,218.091751 
	C267.908478,218.155426 269.423035,216.683945 269.041443,212.350616 
	C268.246246,203.319901 267.784088,194.260040 267.007172,185.227463 
	C265.708893,170.132965 255.996994,161.612991 243.191132,156.039200 
	C230.409546,150.475967 217.852829,152.260544 206.783829,160.242386 
	C197.023346,167.280670 190.237823,176.971848 189.135147,189.358871 
	C188.429260,197.288406 189.158936,205.336197 188.935120,213.322296 
	C188.825897,217.219147 190.506775,218.155975 194.020233,218.053146 
	C200.508453,217.863266 207.006241,217.999573 214.500000,218.000000 
M245.125992,267.625763 
	C248.370682,259.193146 245.919174,250.195557 239.259186,246.093216 
	C231.053772,241.038971 221.851883,242.368271 215.476624,248.889008 
	C210.737289,253.736511 210.101120,265.551208 214.125702,270.757843 
	C215.452713,272.474609 216.878342,274.836914 216.751175,276.806732 
	C216.480576,280.998322 215.078934,285.102936 214.400726,289.285339 
	C213.314972,295.980988 212.440369,302.710907 211.454819,309.577637 
	C223.729401,309.577637 234.748123,309.577637 246.442017,309.577637 
	C245.364761,302.283600 244.078629,295.519348 243.438660,288.694519 
	C242.800613,281.890289 239.163635,274.729401 245.125992,267.625763 
z"/>
</svg>